<svg xmlns="http://www.w3.org/2000/svg" viewBox="0 0 45.3 51.44"><title>helpcenter</title><g id="Layer_2" data-name="Layer 2"><g id="Layer_1-2" data-name="Layer 1"><g id="Layer_2-2" data-name="Layer 2"><g id="Layer_4" data-name="Layer 4"><g id="Layer_2-2-2" data-name="Layer 2-2"><g id="Layer_1-2-2" data-name="Layer 1-2"><ellipse cx="22.35" cy="19.79" rx="12.39" ry="11.05" style="fill:none;stroke: #a1a1a9;stroke-miterlimit:10;stroke-width: 2.618592px;"/><path d="M28.6,32.35l4.25,0c6.41,0,11.6,4.91,11.6,11v3.46a4,4,0,0,1-4.08,3.86H4.92A4,4,0,0,1,.85,46.74v-4c0-5.74,4.91-10.25,11-10.25l3.9-.05S22.22,37.37,28.6,32.35Z" style="fill:none;stroke: #a1a1a9;stroke-miterlimit:10;stroke-width: 2.696409px;"/></g></g></g></g><rect x="6.63" y="16.19" width="3.21" height="8.81" rx="0.91" style="fill:none;stroke: #a1a1a9;stroke-linecap:round;stroke-linejoin:round"/><path d="M36.18,24.54s-2,4.19-11.17,3.6" style="fill:none;stroke: #a1a1a9;stroke-linecap:round;stroke-linejoin:round;stroke-width: 1.809296px;"/><circle cx="22.45" cy="27.33" r="2.24" style="fill:none;stroke: #a1a1a9;stroke-linecap:round;stroke-linejoin:round"/><path d="M7.93,15.84S7.18,5.23,17.15,1.69A13.16,13.16,0,0,1,24,1,14.05,14.05,0,0,1,36.23,13.68a15.54,15.54,0,0,1,0,2.16" style="fill:none;stroke: #a1a1a9;stroke-linecap:round;stroke-linejoin:round;stroke-width: 2.618592px;"/><rect x="34.56" y="15.94" width="3.21" height="8.81" rx="0.91" transform="translate(72.32 40.69) rotate(180)" style="fill:none;stroke: #a1a1a9;stroke-linecap:round;stroke-linejoin:round"/></g></g></svg>