<svg xmlns="http://www.w3.org/2000/svg" viewBox="0 0 54.34 45.09"><title>oders</title><g id="Layer_2" data-name="Layer 2"><g id="Layer_1-2" data-name="Layer 1"><polygon points="28.78 4.04 5.72 21.64 28.78 29.27 50.31 11.67 28.78 4.04" style="fill:none;stroke: #a1a1a9;stroke-linecap:round;stroke-linejoin:round;stroke-width: 2.343432px;"/><polygon points="29.27 4.04 50.31 11.61 53.67 8.24 32.64 0.67 29.27 4.04" style="fill:none;stroke: #a1a1a9;stroke-linecap:round;stroke-linejoin:round;stroke-width: 2.343432px;"/><polygon points="5.72 21.7 29.27 4.04 25.07 0.67 0.67 20.02 5.72 21.7" style="fill:none;stroke: #a1a1a9;stroke-linecap:round;stroke-linejoin:round;stroke-width: 2.343432px;"/><polygon points="29.27 29.27 25.91 32.64 5.72 25.91 5.72 21.7 29.27 29.27" style="fill:none;stroke: #a1a1a9;stroke-linecap:round;stroke-linejoin:round;stroke-width: 2.343432px;"/><polygon points="29.27 29.27 28.43 44.42 4.88 36.85 5.72 21.7 29.27 29.27" style="fill:none;stroke: #a1a1a9;stroke-linecap:round;stroke-linejoin:round;stroke-width: 2.343432px;"/><polyline points="29.27 29.27 28.43 44.42 50.31 26.75 50.31 17.69 31.8 32.64 29.27 29.27" style="fill:none;stroke: #a1a1a9;stroke-linecap:round;stroke-linejoin:round;stroke-width: 2.343432px;"/><polygon points="50.31 11.61 53.67 14.97 31.8 32.64 29.27 29.27 50.31 11.61" style="fill:none;stroke: #a1a1a9;stroke-linecap:round;stroke-linejoin:round;stroke-width: 2.343432px;"/></g></g></svg>