<svg xmlns="http://www.w3.org/2000/svg" viewBox="0 0 51.64 54.05"><title>refer&amp;amp;earn</title><g id="Layer_2" data-name="Layer 2"><g id="Layer_1-2" data-name="Layer 1"><g id="Layer_2-2" data-name="Layer 2"><g id="Layer_1-2-2" data-name="Layer 1-2"><path d="M25.44,6.24S31.69-1.87,39,2.18c0,0,5.31,3.11,4.25,9.32a11.39,11.39,0,0,1-3.13,5.92L26,32.1,11.23,16.86A9.55,9.55,0,0,1,8.48,8.08a9.72,9.72,0,0,1,4.2-5.89,5.43,5.43,0,0,1,2.05-.88C17,.82,22,.58,25.44,6.24Z" style="fill:none;stroke: #a1a1a9;stroke-linecap:round;stroke-miterlimit:10;stroke-width: 3.097642px;"/></g></g><line x1="1" y1="20.46" x2="1" y2="53.05" style="fill:none;stroke: #a1a1a9;stroke-linecap:round;stroke-linejoin:round;stroke-width: 3.001076px;"/><path d="M12.07,17.56C7.78,18.49,1,20.46,1,20.46l24.82,16.3L1,53.05" style="fill:none;stroke: #a1a1a9;stroke-linecap:round;stroke-linejoin:round;stroke-width: 3.001076px;"/><path d="M41.18,17.59c3.55,1,9.46,2.87,9.46,2.87L1,53.05H50.64V20.46" style="fill:none;stroke: #a1a1a9;stroke-linecap:round;stroke-linejoin:round;stroke-width: 3.001076px;"/></g></g></svg>